# xmcd
#
# Track frame offsets: 
#        150
#        20025
#        39150
#        62400
#        86100
#        111000
#        129825
#        149625
#        171975
#        196125
#
# Disc length: 2905 seconds
#
# Revision: 0
# Processed by: cddbd v1.5.2PL0 Copyright (c) Steve Scherf et al.
# Submitted via: ExactAudioCopy v1.0b3
#
DISCID=840b570a
DTITLE=Phuong Lam, Che Linh - Doi Dien
DYEAR=1994
DGENRE=
TTITLE0=Phuong Lam - Nhung chuyen xe trong cuoc doi
TTITLE1=Giua long dat Me
TTITLE2=Phuong Lam - Chuyen tinh khong di vang
TTITLE3=Che Linh - Gac vang
TTITLE4=Phuong Lam - Thu ve em gai thanh do
TTITLE5=Phuong Lam - Doi dien
TTITLE6=Thi tran ve dem
TTITLE7=Phuong Lam - Linh hon tuong da
TTITLE8=Che Linh - Buon ma chi em
TTITLE9=Phuong Lam - Chieu thuong do thi
EXTD=
EXTT0=
EXTT1=
EXTT2=
EXTT3=
EXTT4=
EXTT5=
EXTT6=
EXTT7=
EXTT8=
EXTT9=
PLAYORDER=
